# xmcd CD database file
#
# Track frame offsets:
#	150
#	35705
#	65235
#	104050
#	131927
#	158410
#	198505
#	223532
#
# Disc length: 3440 seconds
#
# Revision: 0
# Processed by: cddbd v1.5.1PL0 Copyright (c) Steve Scherf et al.
# Submitted via: CDex 1.51
#
DISCID=7e0d6e08
DTITLE=Johan Hörlen - Chills
DYEAR=2001
DGENRE=Jazz
TTITLE0=Chills
TTITLE1=Nobody else but me
TTITLE2=Among waterlilies
TTITLE3=Ramsa
TTITLE4=The play
TTITLE5=Vaggan
TTITLE6=Love walked in
TTITLE7=Quiet now
EXTD=YEAR: 2001
EXTT0=
EXTT1=
EXTT2=
EXTT3=
EXTT4=
EXTT5=
EXTT6=
EXTT7=
PLAYORDER=
